<?xml version="1.0" encoding="UTF-8" standalone="no"?>
<!-- Created with Inkscape (http://www.inkscape.org/) -->

<svg
   xmlns:dc="http://purl.org/dc/elements/1.1/"
   xmlns:cc="http://creativecommons.org/ns#"
   xmlns:rdf="http://www.w3.org/1999/02/22-rdf-syntax-ns#"
   xmlns:svg="http://www.w3.org/2000/svg"
   xmlns="http://www.w3.org/2000/svg"
   xmlns:sodipodi="http://sodipodi.sourceforge.net/DTD/sodipodi-0.dtd"
   xmlns:inkscape="http://www.inkscape.org/namespaces/inkscape"
   width="163.84238"
   height="40.79332"
   viewBox="0 0 43.349964 10.793232"
   version="1.1"
   id="svg43428"
   inkscape:version="0.92.0 r15299"
   sodipodi:docname="barber motorsports park.svg">
  <defs
     id="defs43422" />
  <sodipodi:namedview
     id="base"
     pagecolor="#ffffff"
     bordercolor="#666666"
     borderopacity="1.0"
     inkscape:pageopacity="0.0"
     inkscape:pageshadow="2"
     inkscape:zoom="5.5083941"
     inkscape:cx="81.42119"
     inkscape:cy="19.896661"
     inkscape:document-units="mm"
     inkscape:current-layer="layer1"
     showgrid="false"
     fit-margin-top="0"
     fit-margin-left="0"
     fit-margin-right="0"
     fit-margin-bottom="0"
     units="px"
     inkscape:window-width="1280"
     inkscape:window-height="744"
     inkscape:window-x="-4"
     inkscape:window-y="-4"
     inkscape:window-maximized="1" />
  <metadata
     id="metadata43425">
    <rdf:RDF>
      <cc:Work
         rdf:about="">
        <dc:format>image/svg+xml</dc:format>
        <dc:type
           rdf:resource="http://purl.org/dc/dcmitype/StillImage" />
        <dc:title></dc:title>
      </cc:Work>
    </rdf:RDF>
  </metadata>
  <g
     inkscape:label="Layer 1"
     inkscape:groupmode="layer"
     id="layer1"
     transform="translate(9.0694757,-143.30443)">
    <g
       id="g43695"
       transform="translate(0.13229124,-0.13228891)">
      <path
         inkscape:connector-curvature="0"
         id="path24389"
         style="fill:#ffffff;fill-opacity:1;fill-rule:nonzero;stroke:none;stroke-width:0.35277778"
         d="M 1.0651243,154.0952 H -4.5645058 V 143.56901 H 1.0651243 Z" />
      <path
         d="m 4.0394593,153.24899 c 0.097014,0 0.2568222,-0.0215 0.2568222,-0.24236 0,-0.11888 -0.053622,-0.19332 -0.1756833,-0.20743 v -0.006 c 0.1104194,-0.0254 0.1467555,-0.0974 0.1467555,-0.20461 0,-0.0169 -0.00459,-0.0688 -0.034219,-0.11536 -0.03175,-0.0476 -0.071967,-0.0885 -0.1897944,-0.0885 H 3.7657038 v 0.86431 z m -0.1651,-0.7687 h 0.1531056 c 0.091722,0 0.1315861,0.0589 0.1315861,0.13088 0,0.0836 -0.04057,0.13617 -0.1262945,0.13793 H 3.8743593 Z m 0,0.36442 h 0.1157111 c 0.1114778,0 0.1943806,0.0236 0.1943806,0.16192 0,0.0632 -0.040922,0.14676 -0.1569861,0.14676 H 3.8743593 Z"
         style="fill:#000000;fill-opacity:1;fill-rule:nonzero;stroke:none;stroke-width:0.35277778"
         id="path24403"
         inkscape:connector-curvature="0" />
      <path
         inkscape:connector-curvature="0"
         id="path24405"
         style="fill:#000000;fill-opacity:1;fill-rule:nonzero;stroke:none;stroke-width:0.35277778"
         d="m 5.6625243,153.24888 h -0.10901 v -0.8643 h 0.10901 z" />
      <path
         d="m 7.1651673,152.85158 c 0.036689,0 0.1202972,0.005 0.1284111,0.11007 0.00953,0.11535 0.00212,0.22789 0.033161,0.28716 H 7.440334 c -0.016933,-0.0533 -0.028575,-0.18874 -0.030339,-0.22578 -0.00529,-0.17392 -0.040922,-0.20743 -0.1389945,-0.22296 v -0.002 c 0.1005417,-0.0183 0.1562806,-0.096 0.1562806,-0.19756 0,-0.10795 -0.05327,-0.2159 -0.2046111,-0.2159 H 6.9284534 v 0.86431 h 0.1090083 v -0.39723 z m -0.1277056,-0.37112 h 0.1643945 c 0.083608,0 0.1143,0.0695 0.1143,0.13123 0,0.0759 -0.037395,0.14429 -0.1153583,0.14429 H 7.0374617 Z"
         style="fill:#000000;fill-opacity:1;fill-rule:nonzero;stroke:none;stroke-width:0.35277778"
         id="path24409"
         inkscape:connector-curvature="0" />
      <path
         d="M 8.7540433,153.24899 H 8.6520905 v -0.86431 H 8.8284794 L 9.0426155,153.11 h 0.00282 l 0.2166056,-0.72532 h 0.1806222 v 0.86431 H 9.33401 v -0.7687 H 9.33119 l -0.2377722,0.7687 H 8.9900516 l -0.2335389,-0.7687 h -0.00247 z"
         style="fill:#000000;fill-opacity:1;fill-rule:nonzero;stroke:none;stroke-width:0.35277778"
         id="path24413"
         inkscape:connector-curvature="0" />
      <path
         inkscape:connector-curvature="0"
         id="path24415"
         style="fill:#000000;fill-opacity:1;fill-rule:nonzero;stroke:none;stroke-width:0.35277778"
         d="m 10.821184,153.24888 h -0.109 v -0.8643 h 0.109 z" />
      <path
         d="m 12.680115,152.38461 v 0.86431 H 12.53089 l -0.33655,-0.74895 h -0.0014 v 0.74895 h -0.09737 v -0.86431 h 0.153459 l 0.331611,0.74013 h 0.0025 v -0.74013 z"
         style="fill:#000000;fill-opacity:1;fill-rule:nonzero;stroke:none;stroke-width:0.35277778"
         id="path24419"
         inkscape:connector-curvature="0" />
      <path
         d="m 14.348895,152.61614 c 0,-0.10195 -0.04198,-0.15734 -0.150989,-0.15734 -0.03387,0 -0.156986,0.006 -0.156986,0.18697 v 0.29246 c 0,0.18838 0.05433,0.23636 0.156986,0.23636 0.07761,0 0.129822,-0.0212 0.151695,-0.0377 V 152.8783 H 14.19332 v -0.096 h 0.265642 v 0.42051 c -0.06985,0.0381 -0.152048,0.0642 -0.261056,0.0642 -0.180975,0 -0.268111,-0.0945 -0.268111,-0.33372 v -0.28399 c 0,-0.17251 0.08714,-0.28257 0.268111,-0.28257 0.184503,0 0.271992,0.0684 0.263878,0.24941 z"
         style="fill:#000000;fill-opacity:1;fill-rule:nonzero;stroke:none;stroke-width:0.35277778"
         id="path24423"
         inkscape:connector-curvature="0" />
      <path
         d="m 15.732111,153.24899 v -0.86431 h 0.109008 v 0.3736 h 0.29845 v -0.3736 h 0.109009 v 0.86431 h -0.109009 v -0.39476 h -0.29845 v 0.39476 z"
         style="fill:#000000;fill-opacity:1;fill-rule:nonzero;stroke:none;stroke-width:0.35277778"
         id="path24427"
         inkscape:connector-curvature="0" />
      <path
         d="m 17.431926,153.24899 h 0.110067 l 0.06385,-0.20602 h 0.329495 l 0.06103,0.20602 h 0.121709 l -0.277636,-0.86431 h -0.137936 z m 0.473781,-0.30162 h -0.27305 l 0.13335,-0.46073 h 0.0025 z"
         style="fill:#000000;fill-opacity:1;fill-rule:nonzero;stroke:none;stroke-width:0.35277778"
         id="path24431"
         inkscape:connector-curvature="0" />
      <path
         d="m 19.397357,153.24899 h -0.1016 v -0.86431 h 0.176036 l 0.215195,0.72532 h 0.0018 l 0.217664,-0.72532 h 0.179917 v 0.86431 h -0.109008 v -0.7687 h -0.0021 l -0.238478,0.7687 h -0.102658 l -0.234245,-0.7687 h -0.0025 z"
         style="fill:#000000;fill-opacity:1;fill-rule:nonzero;stroke:none;stroke-width:0.35277778"
         id="path24435"
         inkscape:connector-curvature="0" />
      <path
         d="m 20.874261,153.12481 h 0.123119 l -0.108302,0.27658 h -0.07514 z"
         style="fill:#000000;fill-opacity:1;fill-rule:nonzero;stroke:none;stroke-width:0.35277778"
         id="path24439"
         inkscape:connector-curvature="0" />
      <path
         d="m 22.496183,153.24899 h 0.110067 l 0.06385,-0.20602 h 0.329142 l 0.06209,0.20602 h 0.121356 l -0.277284,-0.86431 h -0.137936 z m 0.474486,-0.30162 h -0.273755 l 0.13335,-0.46073 h 0.0028 z"
         style="fill:#000000;fill-opacity:1;fill-rule:nonzero;stroke:none;stroke-width:0.35277778"
         id="path24443"
         inkscape:connector-curvature="0" />
      <path
         d="m 24.358956,153.24899 v -0.86431 h 0.109714 v 0.76871 h 0.312561 v 0.0956 z"
         style="fill:#000000;fill-opacity:1;fill-rule:nonzero;stroke:none;stroke-width:0.35277778"
         id="path24447"
         inkscape:connector-curvature="0" />
      <path
         d="m 25.869303,153.24899 h 0.110067 l 0.0635,-0.20602 h 0.329494 l 0.06103,0.20602 h 0.121708 l -0.277636,-0.86431 h -0.138289 z m 0.473428,-0.30162 h -0.27305 l 0.133703,-0.46073 h 0.0028 z"
         style="fill:#000000;fill-opacity:1;fill-rule:nonzero;stroke:none;stroke-width:0.35277778"
         id="path24451"
         inkscape:connector-curvature="0" />
      <path
         d="m 28.015603,153.24899 c 0.09737,0 0.257528,-0.0215 0.257528,-0.24236 0,-0.11888 -0.05327,-0.19332 -0.174625,-0.20743 v -0.006 c 0.109714,-0.0254 0.145697,-0.0974 0.145697,-0.20461 0,-0.0169 -0.0046,-0.0688 -0.03351,-0.11536 -0.03245,-0.0476 -0.07197,-0.0885 -0.1905,-0.0885 h -0.277636 v 0.86431 z m -0.164747,-0.7687 h 0.153458 c 0.09172,0 0.131939,0.0589 0.131939,0.13088 0,0.0836 -0.04127,0.13617 -0.127,0.13793 h -0.158397 z m 0,0.36442 h 0.116064 c 0.110066,0 0.195086,0.0236 0.195086,0.16192 0,0.0632 -0.04128,0.14676 -0.157692,0.14676 h -0.153458 z"
         style="fill:#000000;fill-opacity:1;fill-rule:nonzero;stroke:none;stroke-width:0.35277778"
         id="path24455"
         inkscape:connector-curvature="0" />
      <path
         d="m 29.439088,153.24899 h 0.109714 l 0.0635,-0.20602 h 0.329847 l 0.06174,0.20602 h 0.12065 l -0.277989,-0.86431 h -0.136525 z m 0.473075,-0.30162 h -0.272697 l 0.13335,-0.46073 h 0.0025 z"
         style="fill:#000000;fill-opacity:1;fill-rule:nonzero;stroke:none;stroke-width:0.35277778"
         id="path24459"
         inkscape:connector-curvature="0" />
      <path
         d="m 31.403831,153.24899 h -0.1016 v -0.86431 h 0.176389 l 0.214842,0.72532 h 0.0021 l 0.217664,-0.72532 h 0.179564 v 0.86431 h -0.10864 v -0.7687 h -0.0018 l -0.239537,0.7687 h -0.103011 l -0.233539,-0.7687 h -0.0025 z"
         style="fill:#000000;fill-opacity:1;fill-rule:nonzero;stroke:none;stroke-width:0.35277778"
         id="path24463"
         inkscape:connector-curvature="0" />
      <path
         d="m 33.270414,153.24899 h 0.110067 l 0.06385,-0.20602 h 0.329495 l 0.06103,0.20602 h 0.121356 l -0.276931,-0.86431 h -0.137936 z m 0.472722,-0.30162 h -0.272344 l 0.134055,-0.46073 h 0.0021 z"
         style="fill:#000000;fill-opacity:1;fill-rule:nonzero;stroke:none;stroke-width:0.35277778"
         id="path24467"
         inkscape:connector-curvature="0" />
      <path
         d="m 6.4293083,148.39536 c -0.1513417,0.17639 -0.3474861,0.26494 -0.5884333,0.26494 -0.1344084,0 -0.2487083,-0.0282 -0.3443111,-0.0847 -0.09525,-0.0557 -0.1524,-0.12524 -0.1721556,-0.20673 v -1.71873 c 0.030692,-0.002 0.077258,-0.005 0.1411111,-0.008 0.0635,-0.003 0.1153584,-0.005 0.1545167,-0.005 0.333375,0 0.5894916,0.0875 0.76835,0.26176 0.1785055,0.17428 0.2677583,0.4251 0.2677583,0.75177 0,0.31997 -0.075494,0.56833 -0.2268361,0.74507 m 0.5679722,-1.81575 c -0.17145,-0.0586 -0.3376083,-0.0967 -0.4960055,-0.11465 v -0.0642 c 0.1591027,-0.0399 0.3086805,-0.0896 0.4487333,-0.14922 0.1393472,-0.0596 0.2585861,-0.13053 0.3591278,-0.21237 0.1104194,-0.0885 0.1957916,-0.19368 0.2561166,-0.31397 0.060325,-0.12101 0.089606,-0.26071 0.089606,-0.42016 0,-0.34573 -0.1326445,-0.60713 -0.396875,-0.78423 C 6.992342,144.3441 6.5623059,144.2552 5.9678754,144.2552 H 3.59615 v 0.25611 c 0.063147,0.0117 0.1382889,0.0265 0.2226028,0.0452 0.084667,0.0187 0.1580444,0.043 0.2197806,0.0716 0.087136,0.0402 0.1418166,0.0864 0.1640416,0.1397 0.022225,0.0533 0.033161,0.1196 0.033161,0.19932 v 3.32564 c 0,0.0864 -0.013758,0.15663 -0.041275,0.21131 -0.028575,0.0543 -0.080081,0.0981 -0.1559277,0.13124 -0.037042,0.0176 -0.1044223,0.0335 -0.2017889,0.0469 -0.095956,0.0131 -0.1774473,0.0229 -0.2405945,0.0296 v 0.25612 h 2.2623639 c 0.3256138,0 0.6081888,-0.0212 0.8487833,-0.0632 0.2402416,-0.042 0.4529666,-0.1136 0.6367639,-0.21555 0.1749777,-0.0953 0.3090333,-0.22507 0.4018138,-0.38982 0.092781,-0.1651 0.1397,-0.36689 0.1397,-0.60607 0,-0.19897 -0.040922,-0.37183 -0.1231194,-0.51929 -0.081492,-0.14711 -0.187325,-0.26917 -0.3175,-0.36654 -0.1255889,-0.0931 -0.2751667,-0.16898 -0.447675,-0.22754 m -0.7718778,-0.51294 c -0.1580444,0.16687 -0.4049888,0.25012 -0.7404805,0.25012 H 5.3244083 v -1.74131 c 0.04692,-0.002 0.1016,-0.005 0.1640417,-0.008 0.062794,-0.004 0.1139472,-0.005 0.1545167,-0.005 0.2755194,0 0.4801305,0.073 0.617361,0.21837 0.1351139,0.1457 0.2042584,0.34854 0.2042584,0.60889 0,0.28505 -0.080081,0.51083 -0.2391834,0.67698"
         style="fill:#cd1141;fill-opacity:1;fill-rule:nonzero;stroke:none;stroke-width:0.35277778"
         id="path24471"
         inkscape:connector-curvature="0" />
      <path
         d="m 13.39703,148.71128 c -0.06174,-0.004 -0.130175,-0.0152 -0.204964,-0.0332 -0.07585,-0.0176 -0.141111,-0.0438 -0.198967,-0.0794 -0.07514,-0.049 -0.132997,-0.10018 -0.173919,-0.15487 -0.04127,-0.054 -0.07514,-0.11465 -0.1016,-0.18097 -0.15875,-0.40711 -0.351014,-0.9211 -0.57785,-1.54093 -0.226483,-0.61983 -0.539397,-1.46368 -0.939094,-2.53083 h -0.613481 c -0.287514,0.75283 -0.54998,1.44145 -0.7881055,2.06551 -0.2388305,0.62477 -0.4769555,1.24813 -0.7133166,1.87008 -0.037394,0.10689 -0.086078,0.19826 -0.1442861,0.27587 -0.057856,0.0776 -0.130175,0.14287 -0.2134306,0.19614 -0.048331,0.0328 -0.1157111,0.0589 -0.2003778,0.078 -0.085019,0.0187 -0.1605138,0.0303 -0.2264833,0.0346 v 0.25647 h 1.7794109 v -0.25647 c -0.2342443,-0.0219 -0.4018137,-0.0589 -0.5037665,-0.10901 -0.1008944,-0.0497 -0.1516944,-0.11112 -0.1516944,-0.18274 0,-0.0222 0.00353,-0.061 0.011994,-0.11712 0.00741,-0.0561 0.029986,-0.14675 0.068086,-0.27199 0.031397,-0.096 0.068086,-0.20567 0.111125,-0.32879 0.041275,-0.12277 0.081139,-0.23036 0.1164167,-0.32173 H 11.25073 l 0.371475,0.98601 c 0.01552,0.0377 0.0254,0.0681 0.02787,0.0907 0.0035,0.0222 0.0056,0.0423 0.0056,0.0603 0,0.0515 -0.07655,0.0949 -0.228953,0.12912 -0.153105,0.0349 -0.285397,0.0568 -0.398286,0.0653 v 0.25647 h 2.36855 z m -3.5454166,-1.65171 0.6311196,-1.73143 0.64523,1.73143 z"
         style="fill:#cd1141;fill-opacity:1;fill-rule:nonzero;stroke:none;stroke-width:0.35277778"
         id="path24475"
         inkscape:connector-curvature="0" />
      <path
         d="m 18.761722,148.71128 c -0.03104,-0.002 -0.0822,-0.008 -0.154517,-0.0194 -0.07197,-0.0113 -0.131939,-0.0243 -0.178505,-0.0399 -0.08467,-0.0289 -0.180622,-0.10548 -0.290336,-0.23001 -0.110067,-0.12453 -0.197556,-0.23036 -0.261056,-0.31609 -0.199672,-0.2667 -0.392642,-0.52775 -0.578555,-0.78387 -0.186267,-0.25541 -0.348545,-0.48013 -0.485775,-0.67451 0.358069,-0.11324 0.625122,-0.27058 0.801511,-0.47202 0.17533,-0.20143 0.263525,-0.46778 0.263525,-0.79939 0,-0.37571 -0.142523,-0.65652 -0.426509,-0.84243 -0.283986,-0.18557 -0.698852,-0.2787 -1.245658,-0.2787 h -2.4511 v 0.25612 c 0.0508,0.009 0.121708,0.0233 0.211667,0.043 0.09031,0.0201 0.167216,0.0448 0.231775,0.0734 0.08678,0.0402 0.140758,0.0864 0.163336,0.14006 0.02187,0.0529 0.03351,0.11959 0.03351,0.19932 v 3.32881 c 0,0.0843 -0.01376,0.15346 -0.04022,0.20778 -0.02646,0.0547 -0.07832,0.0995 -0.156633,0.13441 -0.03986,0.018 -0.109361,0.0332 -0.206728,0.0452 -0.09842,0.0123 -0.176389,0.0215 -0.236714,0.0282 v 0.25647 h 2.330803 v -0.25647 c -0.06033,-0.007 -0.132292,-0.019 -0.216253,-0.0377 -0.08396,-0.0187 -0.145697,-0.0367 -0.185561,-0.0547 -0.07761,-0.037 -0.130175,-0.0833 -0.15875,-0.13864 -0.02752,-0.0554 -0.04198,-0.12241 -0.04198,-0.20144 v -1.42416 h 0.176389 c 0.286103,0.36971 0.523875,0.69533 0.714375,0.9772 0.1905,0.28186 0.431095,0.66004 0.721078,1.13594 h 1.666875 z m -2.327981,-2.4324 c -0.169333,0.17039 -0.406399,0.25576 -0.710494,0.25576 h -0.240242 v -1.97238 h 0.246945 c 0.306564,0 0.542572,0.073 0.709083,0.21731 0.165453,0.14535 0.248003,0.37536 0.248003,0.68933 0,0.36971 -0.08431,0.63959 -0.253295,0.80998"
         style="fill:#cd1141;fill-opacity:1;fill-rule:nonzero;stroke:none;stroke-width:0.35277778"
         id="path24479"
         inkscape:connector-curvature="0" />
      <path
         d="m 21.916402,148.39536 c -0.151342,0.17639 -0.347486,0.26494 -0.588433,0.26494 -0.133703,0 -0.248356,-0.0282 -0.343606,-0.0847 -0.0956,-0.0557 -0.152753,-0.12524 -0.172861,-0.20673 v -1.71873 c 0.03034,-0.002 0.07761,-0.005 0.141464,-0.008 0.06315,-0.003 0.115005,-0.005 0.154517,-0.005 0.332669,0 0.589138,0.0875 0.767997,0.26176 0.178858,0.17428 0.268111,0.4251 0.268111,0.75177 0,0.31997 -0.0762,0.56833 -0.227189,0.74507 m 0.568678,-1.81575 c -0.172861,-0.0586 -0.337961,-0.0967 -0.497064,-0.11465 v -0.0642 c 0.159455,-0.0399 0.309033,-0.0896 0.448733,-0.14922 0.140053,-0.0596 0.259292,-0.13053 0.359481,-0.21237 0.110419,-0.0885 0.196144,-0.19368 0.256116,-0.31397 0.06032,-0.12101 0.09031,-0.26071 0.09031,-0.42016 0,-0.34573 -0.13335,-0.60713 -0.397581,-0.78423 -0.265642,-0.17709 -0.695678,-0.26599 -1.289756,-0.26599 h -2.37243 v 0.25611 c 0.06456,0.0117 0.138642,0.0265 0.222956,0.0452 0.08467,0.0187 0.157691,0.043 0.220133,0.0716 0.08678,0.0402 0.141464,0.0864 0.163689,0.1397 0.02223,0.0533 0.03316,0.1196 0.03316,0.19932 v 3.32564 c 0,0.0864 -0.01341,0.15663 -0.04198,0.21131 -0.02752,0.0543 -0.07937,0.0981 -0.154869,0.13124 -0.0374,0.0176 -0.105128,0.0335 -0.202142,0.0469 -0.09631,0.0131 -0.176389,0.0229 -0.240947,0.0296 v 0.25612 h 2.262717 c 0.325966,0 0.608188,-0.0212 0.849136,-0.0632 0.240241,-0.042 0.451908,-0.1136 0.635705,-0.21555 0.175684,-0.0953 0.309386,-0.22507 0.401814,-0.38982 0.09384,-0.1651 0.140758,-0.36689 0.140758,-0.60607 0,-0.19897 -0.04163,-0.37183 -0.122413,-0.51929 -0.08185,-0.14711 -0.188737,-0.26917 -0.318206,-0.36654 -0.126647,-0.0931 -0.275167,-0.16898 -0.447322,-0.22754 m -0.771525,-0.51294 c -0.15875,0.16687 -0.406047,0.25012 -0.741539,0.25012 H 20.8115 v -1.74131 c 0.04621,-0.002 0.101953,-0.005 0.164042,-0.008 0.06279,-0.004 0.113947,-0.005 0.154516,-0.005 0.275167,0 0.480484,0.073 0.617361,0.21837 0.135467,0.1457 0.204259,0.34854 0.204259,0.60889 0,0.28505 -0.07973,0.51083 -0.238125,0.67698"
         style="fill:#cd1141;fill-opacity:1;fill-rule:nonzero;stroke:none;stroke-width:0.35277778"
         id="path24483"
         inkscape:connector-curvature="0" />
      <path
         d="m 28.026266,145.4586 h -0.242358 c -0.05821,-0.1778 -0.159809,-0.35772 -0.305506,-0.5401 -0.145344,-0.18239 -0.288925,-0.28999 -0.430389,-0.32315 -0.06209,-0.0155 -0.147814,-0.025 -0.257175,-0.0275 -0.109008,-0.004 -0.198966,-0.006 -0.269875,-0.006 h -0.633236 v 1.80622 h 0.448028 c 0.111478,0 0.214136,-0.0148 0.305858,-0.0441 0.09172,-0.0286 0.174978,-0.0847 0.25012,-0.16722 0.04833,-0.0512 0.09631,-0.14146 0.14358,-0.27058 0.04798,-0.12947 0.07938,-0.24201 0.09525,-0.33831 h 0.243064 v 1.97238 h -0.243064 c -0.0134,-0.0924 -0.04586,-0.2085 -0.09525,-0.34855 -0.04904,-0.1397 -0.09701,-0.23601 -0.14358,-0.28857 -0.06597,-0.0794 -0.145345,-0.1337 -0.23742,-0.16369 -0.09102,-0.0293 -0.198261,-0.0444 -0.318558,-0.0444 h -0.448028 v 1.35537 c 0,0.14111 0.01023,0.25365 0.02963,0.3362 0.02011,0.0829 0.05645,0.1464 0.109009,0.19085 0.0508,0.042 0.120297,0.0692 0.208491,0.0825 0.08784,0.0131 0.209198,0.0201 0.363362,0.0201 0.06985,0 0.155927,-0.001 0.255411,-0.004 0.100541,-0.002 0.18803,-0.009 0.262466,-0.0197 0.08537,-0.0109 0.166159,-0.0275 0.239536,-0.0497 0.07408,-0.0222 0.129823,-0.0547 0.166864,-0.0963 0.09737,-0.10866 0.206375,-0.27376 0.328789,-0.49636 0.121709,-0.22225 0.202142,-0.38911 0.239184,-0.49989 h 0.243769 l -0.08361,1.47285 h -4.09187 v -0.25647 c 0.05821,-0.004 0.136525,-0.0127 0.235303,-0.0261 0.09948,-0.0138 0.168628,-0.0293 0.208845,-0.0469 0.07761,-0.0353 0.129822,-0.0801 0.15628,-0.13477 0.02646,-0.0543 0.04022,-0.12347 0.04022,-0.20778 v -3.32881 c 0,-0.0797 -0.01129,-0.14535 -0.03281,-0.19791 -0.02293,-0.0519 -0.07726,-0.0988 -0.163688,-0.14111 -0.05327,-0.0272 -0.127706,-0.0512 -0.22472,-0.0734 -0.09772,-0.0219 -0.169686,-0.0363 -0.219428,-0.0434 v -0.25612 h 3.867503 z"
         style="fill:#cd1141;fill-opacity:1;fill-rule:nonzero;stroke:none;stroke-width:0.35277778"
         id="path24487"
         inkscape:connector-curvature="0" />
      <path
         d="m 34.015904,148.71128 c -0.03175,-0.002 -0.0829,-0.008 -0.155575,-0.0194 -0.07161,-0.0113 -0.130881,-0.0243 -0.176742,-0.0399 -0.08502,-0.0289 -0.18168,-0.10548 -0.2921,-0.23001 -0.109361,-0.12453 -0.196497,-0.23036 -0.259997,-0.31609 -0.20073,-0.2667 -0.3937,-0.52775 -0.579614,-0.78387 -0.185914,-0.25541 -0.347839,-0.48013 -0.485422,-0.67451 0.358069,-0.11324 0.625828,-0.27058 0.801864,-0.47202 0.17533,-0.20143 0.263525,-0.46778 0.263525,-0.79939 0,-0.37571 -0.141817,-0.65652 -0.426156,-0.84243 -0.283986,-0.18557 -0.699558,-0.2787 -1.246011,-0.2787 h -2.450747 v 0.25612 c 0.05045,0.009 0.12065,0.0233 0.210608,0.043 0.09137,0.0201 0.168275,0.0448 0.232128,0.0734 0.08749,0.0402 0.141817,0.0864 0.163689,0.14006 0.02187,0.0529 0.03316,0.11959 0.03316,0.19932 v 3.32881 c 0,0.0843 -0.0134,0.15346 -0.03951,0.20778 -0.02646,0.0547 -0.07973,0.0995 -0.157339,0.13441 -0.03986,0.018 -0.108303,0.0332 -0.206022,0.0452 -0.09843,0.0123 -0.177094,0.0215 -0.236714,0.0282 v 0.25647 h 2.33045 v -0.25647 c -0.06033,-0.007 -0.132292,-0.019 -0.2159,-0.0377 -0.08396,-0.0187 -0.144992,-0.0367 -0.185561,-0.0547 -0.07796,-0.037 -0.131233,-0.0833 -0.159103,-0.13864 -0.02822,-0.0554 -0.04198,-0.12241 -0.04198,-0.20144 v -1.42416 h 0.176741 c 0.28575,0.36971 0.523523,0.69533 0.714375,0.9772 0.1905,0.28186 0.430742,0.66004 0.720372,1.13594 h 1.667581 z m -2.328686,-2.4324 c -0.169333,0.17039 -0.405694,0.25576 -0.710142,0.25576 h -0.240241 v -1.97238 h 0.247297 c 0.306564,0 0.542572,0.073 0.708378,0.21731 0.165805,0.14535 0.248002,0.37536 0.248002,0.68933 0,0.36971 -0.08431,0.63959 -0.253294,0.80998"
         style="fill:#cd1141;fill-opacity:1;fill-rule:nonzero;stroke:none;stroke-width:0.35277778"
         id="path24491"
         inkscape:connector-curvature="0" />
      <path
         d="M 5.6379653,151.61069 H 4.8639709 v -0.0896 c 0.021872,-0.002 0.049742,-0.006 0.083255,-0.012 0.033161,-0.005 0.055739,-0.0109 0.067733,-0.0169 0.025047,-0.012 0.042333,-0.0275 0.053622,-0.0476 0.010583,-0.0197 0.015875,-0.0455 0.015875,-0.0758 v -1.22519 l -0.4878917,1.4418 H 4.4699181 c -0.00529,-0.0257 -0.020461,-0.0762 -0.044097,-0.15169 -0.023989,-0.0755 -0.042686,-0.13618 -0.057503,-0.18168 l -0.3591278,-1.12678 v 0.99731 c 0,0.0953 0.00459,0.16792 0.016228,0.21731 0.010936,0.0501 0.028928,0.0868 0.052917,0.10936 0.015875,0.0162 0.045155,0.0318 0.087842,0.0466 0.042686,0.0145 0.072319,0.0233 0.089253,0.0254 v 0.0896 H 3.6497098 v -0.0896 c 0.016228,-0.002 0.043039,-0.007 0.081492,-0.0159 0.036689,-0.008 0.067733,-0.0219 0.091369,-0.042 0.026811,-0.0215 0.044803,-0.0579 0.054328,-0.10936 0.00847,-0.0515 0.013406,-0.12418 0.013406,-0.21943 v -0.81245 c 0,-0.049 -0.00529,-0.09 -0.015875,-0.12276 -0.010936,-0.0325 -0.027164,-0.0589 -0.047625,-0.078 -0.026811,-0.024 -0.053975,-0.0392 -0.082197,-0.0466 -0.027869,-0.007 -0.056092,-0.0113 -0.085019,-0.0134 v -0.0896 h 0.6529916 l 0.34925,1.08197 0.2970389,-0.87877 c 0.01023,-0.0325 0.019755,-0.0709 0.029986,-0.11571 0.00882,-0.0448 0.013758,-0.0734 0.014111,-0.0875 h 0.6290028 v 0.0896 c -0.021872,0.001 -0.04445,0.004 -0.067381,0.009 -0.022931,0.004 -0.045508,0.0109 -0.06738,0.0187 -0.025753,0.01 -0.042333,0.0258 -0.0508,0.0469 -0.00776,0.0219 -0.013053,0.0455 -0.013053,0.072 v 1.16134 c 0,0.0279 0.00529,0.0508 0.013758,0.0702 0.00776,0.0187 0.0254,0.0349 0.051858,0.049 0.013758,0.007 0.035983,0.0134 0.067028,0.0194 0.031397,0.007 0.054681,0.0109 0.071967,0.0131 z"
         style="fill:#000000;fill-opacity:1;fill-rule:nonzero;stroke:none;stroke-width:0.35277778"
         id="path24495"
         inkscape:connector-curvature="0" />
      <path
         d="m 7.2571893,149.98682 c -0.093133,-0.0402 -0.1929694,-0.0603 -0.2991555,-0.0603 -0.1061862,0 -0.2067278,0.0205 -0.301625,0.0621 -0.094192,0.0409 -0.1753306,0.0995 -0.244475,0.17569 -0.068792,0.078 -0.123825,0.17145 -0.1633361,0.28046 -0.039511,0.1083 -0.059267,0.23036 -0.059267,0.36406 0,0.12877 0.020108,0.24554 0.060678,0.35031 0.040569,0.10442 0.09525,0.19332 0.1643944,0.2667 0.070908,0.0744 0.1513417,0.13159 0.2434167,0.17074 0.092075,0.0395 0.1905,0.0589 0.2935111,0.0589 0.1280583,0 0.238125,-0.0226 0.3305527,-0.0674 0.093839,-0.0452 0.174625,-0.10866 0.2427111,-0.18909 0.064911,-0.0776 0.1139473,-0.17039 0.1488723,-0.27834 0.034925,-0.1076 0.052211,-0.22119 0.052211,-0.34079 0,-0.1337 -0.020108,-0.25294 -0.061736,-0.35807 -0.04057,-0.10442 -0.095603,-0.19367 -0.1658056,-0.26775 -0.068086,-0.0716 -0.1485194,-0.12771 -0.2409472,-0.16722 m -0.1284111,1.4986 c -0.047625,0.0384 -0.104775,0.0575 -0.1707444,0.0575 -0.066675,0 -0.1234723,-0.0187 -0.1696862,-0.0568 -0.046567,-0.0378 -0.083961,-0.0917 -0.1143,-0.16052 -0.029633,-0.0677 -0.051153,-0.14675 -0.064205,-0.23777 -0.013758,-0.091 -0.020461,-0.18803 -0.020461,-0.29034 0,-0.24165 0.03175,-0.42827 0.093839,-0.56091 0.063853,-0.13194 0.1548694,-0.19791 0.2748139,-0.19791 0.070908,0 0.1301749,0.0212 0.1774472,0.0639 0.047625,0.042 0.085372,0.0981 0.1143,0.16863 0.027164,0.0699 0.046919,0.15028 0.058914,0.23989 0.011289,0.0896 0.01658,0.18203 0.01658,0.27693 0,0.11183 -0.00564,0.21237 -0.01905,0.30056 -0.013053,0.0889 -0.035278,0.16828 -0.065264,0.23813 -0.027164,0.0674 -0.064558,0.12065 -0.1121833,0.15875"
         style="fill:#000000;fill-opacity:1;fill-rule:nonzero;stroke:none;stroke-width:0.35277778"
         id="path24499"
         inkscape:connector-curvature="0" />
      <path
         d="M 9.5918993,150.44243 H 9.514641 c -0.019756,-0.0702 -0.052564,-0.14534 -0.097719,-0.22507 -0.046919,-0.0797 -0.088194,-0.12242 -0.1273527,-0.12912 -0.02152,-0.003 -0.047978,-0.006 -0.079728,-0.008 -0.031045,-0.002 -0.057503,-0.004 -0.080081,-0.004 H 9.0821353 V 151.36 c 0,0.0275 0.00459,0.0519 0.013758,0.073 0.00811,0.0212 0.025047,0.0377 0.049742,0.0504 0.015875,0.007 0.039864,0.0141 0.071614,0.0208 0.032808,0.007 0.060325,0.0127 0.083256,0.0162 V 151.61 H 8.5095771 v -0.0896 c 0.019403,-0.002 0.046567,-0.006 0.081139,-0.0102 0.034925,-0.004 0.059619,-0.01 0.071614,-0.0155 0.025753,-0.012 0.042686,-0.0289 0.051506,-0.0497 0.00917,-0.0205 0.013406,-0.0448 0.013406,-0.0737 v -1.29505 h -0.047272 c -0.022225,0 -0.048683,0.001 -0.080081,0.004 -0.031044,0.002 -0.057856,0.005 -0.078317,0.008 -0.039158,0.007 -0.081139,0.0494 -0.1266472,0.12912 -0.045861,0.0797 -0.078669,0.15487 -0.1001889,0.22507 h -0.0762 v -0.47096 h 1.3733639 z"
         style="fill:#000000;fill-opacity:1;fill-rule:nonzero;stroke:none;stroke-width:0.35277778"
         id="path24503"
         inkscape:connector-curvature="0" />
      <path
         d="m 11.152543,149.98682 c -0.09278,-0.0402 -0.191911,-0.0603 -0.298803,-0.0603 -0.105833,0 -0.20708,0.0205 -0.300919,0.0621 -0.09455,0.0409 -0.175684,0.0995 -0.244828,0.17569 -0.06914,0.078 -0.123472,0.17145 -0.162983,0.28046 -0.03986,0.1083 -0.05927,0.23036 -0.05927,0.36406 0,0.12877 0.0194,0.24554 0.05997,0.35031 0.04057,0.10442 0.0956,0.19332 0.164395,0.2667 0.07056,0.0744 0.152047,0.13159 0.244122,0.17074 0.09172,0.0395 0.189794,0.0589 0.292453,0.0589 0.128411,0 0.23883,-0.0226 0.331611,-0.0674 0.09243,-0.0452 0.173919,-0.10866 0.242711,-0.18909 0.06385,-0.0776 0.113594,-0.17039 0.148872,-0.27834 0.03492,-0.1076 0.05186,-0.22119 0.05186,-0.34079 0,-0.1337 -0.02081,-0.25294 -0.06138,-0.35807 -0.04057,-0.10442 -0.09631,-0.19367 -0.166158,-0.26775 -0.06773,-0.0716 -0.147814,-0.12771 -0.241653,-0.16722 m -0.128058,1.4986 c -0.04727,0.0384 -0.10407,0.0575 -0.170745,0.0575 -0.06668,0 -0.123119,-0.0187 -0.169686,-0.0568 -0.04586,-0.0378 -0.08396,-0.0917 -0.114653,-0.16052 -0.02858,-0.0677 -0.05045,-0.14675 -0.06385,-0.23777 -0.01341,-0.091 -0.02011,-0.18803 -0.02011,-0.29034 0,-0.24165 0.0314,-0.42827 0.09419,-0.56091 0.06315,-0.13194 0.154164,-0.19791 0.274108,-0.19791 0.07126,0 0.129822,0.0212 0.1778,0.0639 0.04727,0.042 0.08502,0.0981 0.113595,0.16863 0.02787,0.0699 0.04763,0.15028 0.05891,0.23989 0.01199,0.0896 0.01764,0.18203 0.01764,0.27693 0,0.11183 -0.0067,0.21237 -0.01975,0.30056 -0.01341,0.0889 -0.03457,0.16828 -0.06526,0.23813 -0.02716,0.0674 -0.06526,0.12065 -0.112183,0.15875"
         style="fill:#000000;fill-opacity:1;fill-rule:nonzero;stroke:none;stroke-width:0.35277778"
         id="path24507"
         inkscape:connector-curvature="0" />
      <path
         d="m 13.798694,151.52112 c -0.01094,-7.1e-4 -0.02681,-0.003 -0.05115,-0.007 -0.02328,-0.004 -0.04269,-0.008 -0.05821,-0.0141 -0.02752,-0.01 -0.05927,-0.0363 -0.09455,-0.0797 -0.03563,-0.0434 -0.0635,-0.0801 -0.08396,-0.11007 -0.06632,-0.0928 -0.129116,-0.1838 -0.189089,-0.27305 -0.05997,-0.0889 -0.113241,-0.16686 -0.158397,-0.2346 0.11677,-0.0395 0.203553,-0.0938 0.260703,-0.16439 0.05821,-0.0695 0.08678,-0.16193 0.08678,-0.27729 0,-0.13052 -0.04692,-0.22789 -0.138994,-0.29245 -0.09208,-0.0646 -0.226836,-0.097 -0.405342,-0.097 h -0.79763 v 0.09 c 0.01658,0.003 0.03986,0.008 0.06879,0.0148 0.02858,0.007 0.05433,0.0155 0.0755,0.0258 0.02822,0.0137 0.04586,0.0296 0.05327,0.0483 0.0064,0.0187 0.01094,0.0416 0.01094,0.0695 v 1.15676 c 0,0.0293 -0.0053,0.0536 -0.01341,0.072 -0.0085,0.0194 -0.0254,0.0349 -0.0508,0.0473 -0.01376,0.006 -0.03634,0.0113 -0.06809,0.0155 -0.03175,0.004 -0.05645,0.008 -0.0762,0.01 v 0.0896 h 0.758119 v -0.0896 c -0.01905,-0.002 -0.04233,-0.007 -0.06914,-0.0134 -0.02716,-0.006 -0.04763,-0.0127 -0.06033,-0.019 -0.02505,-0.0131 -0.04163,-0.0289 -0.0508,-0.0483 -0.0099,-0.019 -0.01411,-0.0427 -0.01411,-0.0702 v -0.496 h 0.05539 c 0.09207,0.12911 0.16898,0.24271 0.231422,0.34078 0.06315,0.0981 0.141111,0.23001 0.234597,0.39582 h 0.544689 z m -0.760236,-0.84772 c -0.05503,0.0589 -0.130881,0.0885 -0.229306,0.0885 H 12.7326 v -0.68509 h 0.07796 c 0.09984,0 0.176389,0.0257 0.229306,0.0762 0.05362,0.0497 0.08008,0.12947 0.08008,0.23883 0,0.12841 -0.02787,0.2226 -0.08149,0.28152"
         style="fill:#000000;fill-opacity:1;fill-rule:nonzero;stroke:none;stroke-width:0.35277778"
         id="path24511"
         inkscape:connector-curvature="0" />
      <path
         d="m 14.806757,151.65545 c -0.08714,0 -0.167922,-0.0127 -0.242358,-0.0374 -0.07444,-0.0247 -0.138642,-0.0547 -0.190853,-0.0886 l -0.06773,0.0811 h -0.08643 l -0.0127,-0.59232 h 0.08643 c 0.0194,0.0565 0.04445,0.11536 0.07408,0.17745 0.03069,0.0621 0.06491,0.11783 0.104775,0.16722 0.04092,0.0512 0.08608,0.0931 0.136878,0.12559 0.05115,0.0325 0.109714,0.0483 0.177094,0.0483 0.09102,0 0.160514,-0.0254 0.20955,-0.0769 0.04763,-0.0508 0.07197,-0.115 0.07197,-0.19297 0,-0.0639 -0.02011,-0.11712 -0.06103,-0.16086 -0.04092,-0.043 -0.104069,-0.0811 -0.191558,-0.11289 -0.0568,-0.0208 -0.107597,-0.0406 -0.15487,-0.0582 -0.04727,-0.018 -0.09137,-0.0363 -0.132291,-0.0547 -0.0956,-0.0438 -0.167217,-0.10689 -0.213431,-0.18839 -0.04621,-0.0811 -0.06914,-0.17286 -0.06914,-0.2734 0,-0.0639 0.01129,-0.12523 0.03493,-0.1845 0.02434,-0.0582 0.05891,-0.11148 0.105128,-0.15875 0.0441,-0.0437 0.100188,-0.0797 0.167922,-0.10725 0.06914,-0.0275 0.142522,-0.0416 0.223661,-0.0416 0.07796,0 0.150989,0.0127 0.220133,0.0385 0.06738,0.025 0.121356,0.0504 0.160161,0.0758 l 0.06068,-0.0691 h 0.08678 l 0.0095,0.55986 h -0.08608 c -0.01976,-0.0596 -0.04339,-0.121 -0.0702,-0.1838 -0.02646,-0.0624 -0.05468,-0.11465 -0.08467,-0.15592 -0.03281,-0.0452 -0.07056,-0.0804 -0.112183,-0.1069 -0.04233,-0.0265 -0.09172,-0.0399 -0.149225,-0.0399 -0.07126,0 -0.129822,0.0233 -0.175331,0.0702 -0.04551,0.0469 -0.06809,0.10478 -0.06809,0.17357 0,0.0653 0.02046,0.11853 0.05927,0.15981 0.03951,0.0413 0.100542,0.0783 0.184855,0.10936 0.04939,0.0194 0.09948,0.0384 0.149931,0.0579 0.05151,0.0194 0.09737,0.0377 0.136878,0.0554 0.09737,0.0434 0.170391,0.10266 0.220133,0.17886 0.05045,0.0758 0.0755,0.17004 0.0755,0.28293 0,0.0705 -0.01517,0.13899 -0.04339,0.20567 -0.02858,0.0663 -0.06703,0.12135 -0.115358,0.1651 -0.05292,0.049 -0.114653,0.0857 -0.185209,0.11253 -0.0695,0.0261 -0.151341,0.0392 -0.244122,0.0392"
         style="fill:#000000;fill-opacity:1;fill-rule:nonzero;stroke:none;stroke-width:0.35277778"
         id="path24515"
         inkscape:connector-curvature="0" />
      <path
         d="m 17.139429,150.07243 c -0.09066,-0.0674 -0.227894,-0.10089 -0.410986,-0.10089 H 15.94704 v 0.0896 c 0.01517,0.002 0.03845,0.007 0.0695,0.0141 0.03104,0.007 0.05645,0.0159 0.07444,0.025 0.02681,0.013 0.04445,0.0296 0.05186,0.0494 0.0081,0.0194 0.01164,0.0427 0.01164,0.0699 v 1.15676 c 0,0.0318 -0.0035,0.0564 -0.01235,0.0741 -0.0088,0.0176 -0.02469,0.0328 -0.05115,0.0452 -0.01305,0.006 -0.03528,0.0113 -0.06703,0.0155 -0.0321,0.005 -0.0575,0.008 -0.07691,0.01 v 0.0896 h 0.771525 v -0.0896 c -0.02046,-0.002 -0.04586,-0.007 -0.07585,-0.0141 -0.03069,-0.007 -0.05327,-0.013 -0.06668,-0.0194 -0.02505,-0.012 -0.04233,-0.0289 -0.05115,-0.049 -0.0099,-0.0205 -0.01446,-0.0445 -0.01446,-0.072 v -0.46038 h 0.11677 c 0.09454,0 0.180622,-0.01 0.257527,-0.0286 0.07691,-0.0194 0.144992,-0.0508 0.205317,-0.0938 0.05715,-0.042 0.103011,-0.096 0.136172,-0.16263 0.03281,-0.067 0.04939,-0.1464 0.04939,-0.23883 0,-0.139 -0.04586,-0.24236 -0.136172,-0.30974 m -0.336903,0.635 c -0.0575,0.0575 -0.140758,0.0868 -0.250825,0.0868 h -0.04128 v -0.71719 h 0.08361 c 0.110419,0 0.186619,0.0296 0.229305,0.0892 0.04339,0.0593 0.06491,0.15063 0.06491,0.2734 0,0.12065 -0.02893,0.2099 -0.08573,0.26776"
         style="fill:#000000;fill-opacity:1;fill-rule:nonzero;stroke:none;stroke-width:0.35277778"
         id="path24519"
         inkscape:connector-curvature="0" />
      <path
         d="m 18.861973,149.98682 c -0.09313,-0.0402 -0.191911,-0.0603 -0.299156,-0.0603 -0.106186,0 -0.206375,0.0205 -0.300919,0.0621 -0.09419,0.0409 -0.176036,0.0995 -0.245181,0.17569 -0.06914,0.078 -0.123119,0.17145 -0.162983,0.28046 -0.03951,0.1083 -0.05891,0.23036 -0.05891,0.36406 0,0.12877 0.01976,0.24554 0.06032,0.35031 0.04057,0.10442 0.0949,0.19332 0.164395,0.2667 0.0702,0.0744 0.152047,0.13159 0.243769,0.17074 0.09208,0.0395 0.190147,0.0589 0.292806,0.0589 0.128058,0 0.23883,-0.0226 0.330905,-0.0674 0.09313,-0.0452 0.174272,-0.10866 0.243064,-0.18909 0.06456,-0.0776 0.1143,-0.17039 0.148872,-0.27834 0.03457,-0.1076 0.05186,-0.22119 0.05186,-0.34079 0,-0.1337 -0.02046,-0.25294 -0.06103,-0.35807 -0.04092,-0.10442 -0.09666,-0.19367 -0.166158,-0.26775 -0.06844,-0.0716 -0.14852,-0.12771 -0.241653,-0.16722 m -0.128411,1.4986 c -0.04763,0.0384 -0.10407,0.0575 -0.170745,0.0575 -0.06632,0 -0.123472,-0.0187 -0.169333,-0.0568 -0.04657,-0.0378 -0.08467,-0.0917 -0.1143,-0.16052 -0.02928,-0.0677 -0.05115,-0.14675 -0.06491,-0.23777 -0.01341,-0.091 -0.02046,-0.18803 -0.02046,-0.29034 0,-0.24165 0.0314,-0.42827 0.09419,-0.56091 0.06385,-0.13194 0.155222,-0.19791 0.274813,-0.19791 0.07126,0 0.130175,0.0212 0.177448,0.0639 0.04833,0.042 0.08537,0.0981 0.1143,0.16863 0.02787,0.0699 0.04692,0.15028 0.05891,0.23989 0.01199,0.0896 0.01693,0.18203 0.01693,0.27693 0,0.11183 -0.006,0.21237 -0.0194,0.30056 -0.01235,0.0889 -0.03493,0.16828 -0.06526,0.23813 -0.02716,0.0674 -0.06456,0.12065 -0.112183,0.15875"
         style="fill:#000000;fill-opacity:1;fill-rule:nonzero;stroke:none;stroke-width:0.35277778"
         id="path24523"
         inkscape:connector-curvature="0" />
      <path
         d="m 21.507462,151.52112 c -0.01023,-7.1e-4 -0.02681,-0.003 -0.0508,-0.007 -0.02293,-0.004 -0.04269,-0.008 -0.05856,-0.0141 -0.02716,-0.01 -0.05891,-0.0363 -0.09455,-0.0797 -0.03528,-0.0434 -0.0635,-0.0801 -0.08361,-0.11007 -0.06632,-0.0928 -0.129117,-0.1838 -0.189442,-0.27305 -0.05962,-0.0889 -0.112536,-0.16686 -0.157691,-0.2346 0.116416,-0.0395 0.203553,-0.0938 0.260703,-0.16439 0.0575,-0.0695 0.08643,-0.16193 0.08643,-0.27729 0,-0.13052 -0.04692,-0.22789 -0.138994,-0.29245 -0.09243,-0.0646 -0.227542,-0.097 -0.405695,-0.097 h -0.79763 v 0.09 c 0.01658,0.003 0.04022,0.008 0.0695,0.0148 0.02858,0.007 0.05362,0.0155 0.07514,0.0258 0.02787,0.0137 0.0448,0.0296 0.05292,0.0483 0.0071,0.0187 0.01129,0.0416 0.01129,0.0695 v 1.15676 c 0,0.0293 -0.0046,0.0536 -0.01341,0.072 -0.0081,0.0194 -0.02611,0.0349 -0.0508,0.0473 -0.01376,0.006 -0.03634,0.0113 -0.06809,0.0155 -0.03175,0.004 -0.0568,0.008 -0.07655,0.01 v 0.0896 h 0.758825 v -0.0896 c -0.01905,-0.002 -0.04269,-0.007 -0.0695,-0.0134 -0.02716,-0.006 -0.04763,-0.0127 -0.06033,-0.019 -0.02505,-0.0131 -0.04198,-0.0289 -0.0515,-0.0483 -0.0092,-0.019 -0.01341,-0.0427 -0.01341,-0.0702 v -0.496 h 0.05539 c 0.09208,0.12911 0.168981,0.24271 0.231775,0.34078 0.06244,0.0981 0.140406,0.23001 0.233892,0.39582 h 0.544689 z m -0.759883,-0.84772 c -0.05468,0.0589 -0.130528,0.0885 -0.230011,0.0885 h -0.07585 v -0.68509 h 0.07867 c 0.09878,0 0.174978,0.0257 0.228953,0.0762 0.05292,0.0497 0.07902,0.12947 0.07902,0.23883 0,0.12841 -0.02716,0.2226 -0.08079,0.28152"
         style="fill:#000000;fill-opacity:1;fill-rule:nonzero;stroke:none;stroke-width:0.35277778"
         id="path24527"
         inkscape:connector-curvature="0" />
      <path
         d="m 23.237943,150.44243 h -0.07655 c -0.02011,-0.0702 -0.05327,-0.14534 -0.09948,-0.22507 -0.04516,-0.0797 -0.08749,-0.12242 -0.126295,-0.12912 -0.02117,-0.003 -0.04727,-0.006 -0.07902,-0.008 -0.03104,-0.002 -0.05821,-0.004 -0.08008,-0.004 h -0.04727 V 151.36 c 0,0.0275 0.0035,0.0519 0.01235,0.073 0.0081,0.0212 0.0254,0.0377 0.05045,0.0504 0.01517,0.007 0.03986,0.0141 0.07126,0.0208 0.0321,0.007 0.06033,0.0127 0.08326,0.0162 v 0.0896 h -0.790223 v -0.0896 c 0.01799,-0.002 0.04586,-0.006 0.08043,-0.0102 0.03493,-0.004 0.05927,-0.01 0.07197,-0.0155 0.02505,-0.012 0.04233,-0.0289 0.05186,-0.0497 0.0085,-0.0205 0.01305,-0.0448 0.01305,-0.0737 v -1.29505 h -0.04727 c -0.02187,0 -0.04939,0.001 -0.08043,0.004 -0.03104,0.002 -0.0575,0.005 -0.07867,0.008 -0.03845,0.007 -0.08043,0.0494 -0.126294,0.12912 -0.04586,0.0797 -0.07902,0.15487 -0.09984,0.22507 h -0.07655 v -0.47096 h 1.373364 z"
         style="fill:#000000;fill-opacity:1;fill-rule:nonzero;stroke:none;stroke-width:0.35277778"
         id="path24531"
         inkscape:connector-curvature="0" />
      <path
         d="m 24.325195,151.65545 c -0.08678,0 -0.167922,-0.0127 -0.242711,-0.0374 -0.07408,-0.0247 -0.138289,-0.0547 -0.1905,-0.0886 l -0.06738,0.0811 h -0.08714 l -0.0127,-0.59232 h 0.08643 c 0.0194,0.0565 0.04445,0.11536 0.07479,0.17745 0.02999,0.0621 0.06421,0.11783 0.104069,0.16722 0.04057,0.0512 0.08643,0.0931 0.136878,0.12559 0.0508,0.0325 0.109714,0.0483 0.177094,0.0483 0.09137,0 0.160867,-0.0254 0.20955,-0.0769 0.04868,-0.0508 0.07232,-0.115 0.07232,-0.19297 0,-0.0639 -0.02046,-0.11712 -0.06138,-0.16086 -0.04057,-0.043 -0.104775,-0.0811 -0.191558,-0.11289 -0.0568,-0.0208 -0.10795,-0.0406 -0.155222,-0.0582 -0.04657,-0.018 -0.09102,-0.0363 -0.131586,-0.0547 -0.09596,-0.0438 -0.167922,-0.10689 -0.213431,-0.18839 -0.04657,-0.0811 -0.0695,-0.17286 -0.0695,-0.2734 0,-0.0639 0.01164,-0.12523 0.03598,-0.1845 0.02364,-0.0582 0.0575,-0.11148 0.104423,-0.15875 0.0441,-0.0437 0.09984,-0.0797 0.167569,-0.10725 0.06809,-0.0275 0.143228,-0.0416 0.223308,-0.0416 0.07796,0 0.151342,0.0127 0.219781,0.0385 0.06809,0.025 0.122414,0.0504 0.160867,0.0758 l 0.06138,-0.0691 h 0.08643 l 0.0095,0.55986 h -0.08608 c -0.02011,-0.0596 -0.04374,-0.121 -0.07056,-0.1838 -0.02681,-0.0624 -0.05433,-0.11465 -0.08502,-0.15592 -0.03246,-0.0452 -0.0702,-0.0804 -0.111478,-0.1069 -0.04233,-0.0265 -0.09207,-0.0399 -0.149578,-0.0399 -0.07126,0 -0.129469,0.0233 -0.174978,0.0702 -0.04586,0.0469 -0.06809,0.10478 -0.06809,0.17357 0,0.0653 0.0194,0.11853 0.05927,0.15981 0.03951,0.0413 0.100542,0.0783 0.184503,0.10936 0.04904,0.0194 0.09948,0.0384 0.14993,0.0579 0.05151,0.0194 0.09772,0.0377 0.136878,0.0554 0.09737,0.0434 0.170744,0.10266 0.220133,0.17886 0.05045,0.0758 0.0755,0.17004 0.0755,0.28293 0,0.0705 -0.01482,0.13899 -0.04374,0.20567 -0.02752,0.0663 -0.06632,0.12135 -0.115005,0.1651 -0.05292,0.049 -0.114653,0.0857 -0.185209,0.11253 -0.0695,0.0261 -0.150283,0.0392 -0.243769,0.0392"
         style="fill:#000000;fill-opacity:1;fill-rule:nonzero;stroke:none;stroke-width:0.35277778"
         id="path24535"
         inkscape:connector-curvature="0" />
      <path
         d="m 27.586344,150.07243 c -0.09066,-0.0674 -0.227894,-0.10089 -0.410633,-0.10089 h -0.781756 v 0.0896 c 0.01588,0.002 0.03881,0.007 0.0702,0.0141 0.03104,0.007 0.05609,0.0159 0.07444,0.025 0.02646,0.013 0.04304,0.0296 0.05151,0.0494 0.0081,0.0194 0.01199,0.0427 0.01199,0.0699 v 1.15676 c 0,0.0318 -0.0046,0.0564 -0.01199,0.0741 -0.0092,0.0176 -0.02575,0.0328 -0.05151,0.0452 -0.01341,0.006 -0.03563,0.0113 -0.06773,0.0155 -0.03175,0.005 -0.0575,0.008 -0.07691,0.01 v 0.0896 h 0.771878 v -0.0896 c -0.02117,-0.002 -0.04586,-0.007 -0.07655,-0.0141 -0.02999,-0.007 -0.05256,-0.013 -0.06668,-0.0194 -0.02469,-0.012 -0.04233,-0.0289 -0.0508,-0.049 -0.0099,-0.0205 -0.01482,-0.0445 -0.01482,-0.072 v -0.46038 H 27.0734 c 0.0956,0 0.181681,-0.01 0.258939,-0.0286 0.07655,-0.0194 0.144992,-0.0508 0.204611,-0.0938 0.0575,-0.042 0.103364,-0.096 0.13582,-0.16263 0.03351,-0.067 0.04974,-0.1464 0.04974,-0.23883 0,-0.139 -0.04551,-0.24236 -0.136172,-0.30974 m -0.33655,0.635 c -0.05786,0.0575 -0.141111,0.0868 -0.250825,0.0868 h -0.04198 v -0.71719 h 0.08396 c 0.110419,0 0.186619,0.0296 0.229658,0.0892 0.04269,0.0593 0.06456,0.15063 0.06456,0.2734 0,0.12065 -0.02822,0.2099 -0.08537,0.26776"
         style="fill:#000000;fill-opacity:1;fill-rule:nonzero;stroke:none;stroke-width:0.35277778"
         id="path24539"
         inkscape:connector-curvature="0" />
      <path
         d="m 29.777781,151.52112 c -0.01976,-0.002 -0.04233,-0.006 -0.06668,-0.012 -0.02469,-0.006 -0.04586,-0.0152 -0.06526,-0.0272 -0.02434,-0.0173 -0.04304,-0.0349 -0.0568,-0.054 -0.01376,-0.0187 -0.02434,-0.0399 -0.03316,-0.0628 -0.05151,-0.14181 -0.1143,-0.32067 -0.188031,-0.53587 -0.07444,-0.2159 -0.176036,-0.50906 -0.307269,-0.88018 H 28.8595 c -0.09349,0.26176 -0.179211,0.5013 -0.256469,0.71826 -0.07761,0.21696 -0.154869,0.43427 -0.232833,0.65017 -0.01235,0.037 -0.02822,0.0691 -0.04692,0.096 -0.0194,0.0268 -0.04269,0.0494 -0.0695,0.0684 -0.01729,0.0113 -0.03881,0.0205 -0.06597,0.0268 -0.02681,0.007 -0.05151,0.0106 -0.07479,0.0123 v 0.0896 h 0.582789 v -0.0896 c -0.07444,-0.008 -0.127706,-0.0205 -0.160162,-0.0377 -0.0321,-0.0176 -0.04868,-0.0388 -0.04868,-0.0635 0,-0.008 0.0018,-0.0215 0.0039,-0.0406 0.0025,-0.0197 0.0099,-0.0508 0.02152,-0.0942 0.01094,-0.0332 0.02293,-0.0713 0.03704,-0.11359 0.0134,-0.0427 0.02575,-0.0797 0.03669,-0.11148 h 0.487539 l 0.122413,0.34149 c 0.0042,0.0127 0.0067,0.0233 0.0081,0.0314 0.0011,0.007 0.0018,0.0148 0.0018,0.0205 0,0.0176 -0.02434,0.0328 -0.07267,0.0448 -0.04974,0.0123 -0.09137,0.0194 -0.127,0.0229 v 0.0896 h 0.771525 z m -1.153583,-0.57326 0.204964,-0.59373 0.205669,0.59373 z"
         style="fill:#000000;fill-opacity:1;fill-rule:nonzero;stroke:none;stroke-width:0.35277778"
         id="path24543"
         inkscape:connector-curvature="0" />
      <path
         d="m 31.829308,151.52112 c -0.01094,-7.1e-4 -0.02681,-0.003 -0.05115,-0.007 -0.02328,-0.004 -0.04269,-0.008 -0.05821,-0.0141 -0.02858,-0.01 -0.05962,-0.0363 -0.09455,-0.0797 -0.03598,-0.0434 -0.06421,-0.0801 -0.08431,-0.11007 -0.06597,-0.0928 -0.129117,-0.1838 -0.189089,-0.27305 -0.05997,-0.0889 -0.112536,-0.16686 -0.158045,-0.2346 0.11677,-0.0395 0.202847,-0.0938 0.261056,-0.16439 0.0568,-0.0695 0.08608,-0.16193 0.08608,-0.27729 0,-0.13052 -0.04621,-0.22789 -0.139348,-0.29245 -0.09208,-0.0646 -0.226836,-0.097 -0.404989,-0.097 h -0.797277 v 0.09 c 0.01693,0.003 0.03951,0.008 0.06809,0.0148 0.02893,0.007 0.05433,0.0155 0.07655,0.0258 0.02681,0.0137 0.04445,0.0296 0.05221,0.0483 0.0074,0.0187 0.01094,0.0416 0.01094,0.0695 v 1.15676 c 0,0.0293 -0.0046,0.0536 -0.0127,0.072 -0.0085,0.0194 -0.02575,0.0349 -0.05045,0.0473 -0.01446,0.006 -0.03669,0.0113 -0.06844,0.0155 -0.0321,0.004 -0.05715,0.008 -0.0762,0.01 v 0.0896 H 30.9583 v -0.0896 c -0.01976,-0.002 -0.04304,-0.007 -0.07056,-0.0134 -0.02681,-0.006 -0.04692,-0.0127 -0.05997,-0.019 -0.0247,-0.0131 -0.04198,-0.0289 -0.05151,-0.0483 -0.0088,-0.019 -0.0134,-0.0427 -0.0134,-0.0702 v -0.496 h 0.05468 c 0.09243,0.12911 0.170039,0.24271 0.232834,0.34078 0.06279,0.0981 0.1397,0.23001 0.234244,0.39582 h 0.544689 z m -0.760589,-0.84772 c -0.05433,0.0589 -0.130528,0.0885 -0.228953,0.0885 h -0.07691 v -0.68509 h 0.07867 c 0.09948,0 0.175684,0.0257 0.229306,0.0762 0.05256,0.0497 0.07867,0.12947 0.07867,0.23883 0,0.12841 -0.02681,0.2226 -0.08079,0.28152"
         style="fill:#000000;fill-opacity:1;fill-rule:nonzero;stroke:none;stroke-width:0.35277778"
         id="path24547"
         inkscape:connector-curvature="0" />
      <path
         d="m 33.90462,151.61069 h -0.560917 c -0.08396,-0.15099 -0.160161,-0.27799 -0.228247,-0.37888 -0.06703,-0.10196 -0.154164,-0.22966 -0.259997,-0.38312 h -0.05151 v 0.51964 c 0,0.0279 0.0042,0.0515 0.01305,0.0713 0.0088,0.019 0.0254,0.0356 0.05115,0.0487 0.01199,0.006 0.02999,0.0123 0.05362,0.0187 0.02328,0.006 0.04692,0.0106 0.07056,0.0141 v 0.0896 h -0.752475 v -0.0896 c 0.0187,-0.002 0.04374,-0.004 0.07655,-0.007 0.0321,-0.003 0.05503,-0.008 0.06914,-0.0141 0.02293,-0.0106 0.03916,-0.0258 0.04833,-0.0448 0.0092,-0.0194 0.01411,-0.0434 0.01411,-0.073 v -1.1624 c 0,-0.0272 -0.0039,-0.0497 -0.01164,-0.0684 -0.0081,-0.0183 -0.0247,-0.0349 -0.0508,-0.0494 -0.02081,-0.0113 -0.04586,-0.0198 -0.07514,-0.0272 -0.02893,-0.007 -0.05186,-0.0113 -0.07055,-0.0134 v -0.0896 h 0.777875 v 0.0896 c -0.02046,0.002 -0.04551,0.005 -0.07444,0.01 -0.02928,0.004 -0.05433,0.0102 -0.07514,0.0173 -0.0254,0.0102 -0.04233,0.0258 -0.05115,0.0473 -0.0088,0.0219 -0.01305,0.0459 -0.01305,0.0716 v 0.55174 h 0.04092 c 0.05221,-0.0547 0.112536,-0.12029 0.182386,-0.1972 0.06914,-0.0765 0.122061,-0.14005 0.159808,-0.18944 0.05398,-0.0681 0.09278,-0.12241 0.117475,-0.16228 0.02469,-0.0402 0.0381,-0.0748 0.0381,-0.10407 0,-0.013 -0.0127,-0.0233 -0.03598,-0.03 -0.0247,-0.007 -0.06174,-0.012 -0.112536,-0.0148 v -0.0896 h 0.617713 v 0.0896 c -0.07444,0.009 -0.136877,0.0247 -0.18803,0.0469 -0.0508,0.0219 -0.101247,0.0586 -0.151342,0.11007 -0.0702,0.0734 -0.128764,0.13723 -0.174272,0.1912 -0.04621,0.054 -0.105128,0.12312 -0.177094,0.20744 0.06279,0.0903 0.139347,0.20037 0.228952,0.33125 0.08925,0.13088 0.178859,0.25824 0.267053,0.38206 0.02222,0.0321 0.04833,0.0624 0.07796,0.0921 0.02928,0.0289 0.06138,0.0526 0.09737,0.0709 0.01658,0.008 0.03563,0.0148 0.0575,0.0194 0.02046,0.005 0.03881,0.008 0.05468,0.008 z"
         style="fill:#000000;fill-opacity:1;fill-rule:nonzero;stroke:none;stroke-width:0.35277778"
         id="path24551"
         inkscape:connector-curvature="0" />
      <path
         inkscape:connector-curvature="0"
         id="path24553"
         style="fill:#cd1141;fill-opacity:1;fill-rule:evenodd;stroke:none;stroke-width:0.35277778"
         d="m -5.0142956,143.58453 h -4.0551801 v 10.51067 h 4.0551801 z" />
      <path
         d="m -6.9173336,148.54194 h 0.039158 c 0.1065389,0 0.1322917,-0.0353 0.1322917,-0.12947 v -0.0469 -2.34844 -0.0702 c 0,-0.0825 -0.025753,-0.10548 -0.1192389,-0.10548 h -0.052211 -0.092428 v 2.70051 z m -0.0127,3.52249 h 0.064911 c 0.1192389,0 0.1322917,-0.0236 0.1322917,-0.1644 v -0.0353 -2.2546 -0.0702 c 0,-0.10619 -0.038806,-0.14111 -0.1322917,-0.14111 h -0.052211 -0.092428 v 2.66559 z m 0.3157361,-7.01005 h 0.040217 c 0.4875388,0 0.7775222,0.32879 0.7775222,0.8569 v 0.0356 2.16076 0.0353 c 0,0.387 -0.1305278,0.60995 -0.5009445,0.80962 l 0.039864,0.0233 c 0.3690056,0.20002 0.4748389,0.36442 0.4748389,0.71684 v 0.0349 2.20733 0.0469 c 0,0.50517 -0.3693583,0.89252 -0.8441972,0.89252 h -0.052211 -1.2932833 v -7.82002 z"
         style="fill:#000000;fill-opacity:1;fill-rule:nonzero;stroke:none;stroke-width:0.35277778"
         id="path24557"
         inkscape:connector-curvature="0" />
      <path
         d="m -7.0447834,148.44341 h 0.039864 c 0.1058333,0 0.1312333,-0.036 0.1312333,-0.12947 v -0.0469 -2.34844 -0.0706 c 0,-0.0822 -0.0254,-0.10583 -0.1178278,-0.10583 h -0.053269 -0.092428 v 2.70122 z m -0.013053,3.52249 h 0.066322 c 0.1178278,0 0.1315862,-0.024 0.1315862,-0.16475 v -0.0349 -2.25425 -0.0705 c 0,-0.10619 -0.039158,-0.14111 -0.1315862,-0.14111 h -0.053269 -0.092428 v 2.66559 z m 0.3167945,-7.01005 h 0.039158 c 0.4878916,0 0.7785805,0.32879 0.7785805,0.8569 v 0.0353 2.16042 0.0356 c 0,0.38699 -0.1315861,0.6103 -0.50165,0.81033 l 0.040217,0.0233 c 0.3690056,0.19932 0.4741333,0.36371 0.4741333,0.71579 v 0.0356 2.20733 0.0466 c 0,0.50518 -0.3686527,0.89253 -0.8441972,0.89253 h -0.052211 -1.2929305 v -7.81967 z"
         style="fill:#ffffff;fill-opacity:1;fill-rule:nonzero;stroke:none;stroke-width:0.35277778"
         id="path24561"
         inkscape:connector-curvature="0" />
      <path
         d="m -4.5467729,144.24215 -0.011994,0.14499 c 0,0 0.011994,0.001 0.033161,0.003 v -0.14605 c -0.00741,-7.1e-4 -0.014464,-0.002 -0.021167,-0.002"
         style="fill:#ffffff;fill-opacity:1;fill-rule:nonzero;stroke:none;stroke-width:0.35277778"
         id="path24565"
         inkscape:connector-curvature="0" />
      <path
         inkscape:connector-curvature="0"
         id="path24567"
         style="fill:#ffd559;fill-opacity:1;fill-rule:nonzero;stroke:none;stroke-width:0.35277778"
         d="m -4.5179457,154.09766 h -0.5005898 v -10.52195 h 0.5005898 z" />
      <path
         d="m -3.1101383,149.90638 c 0.4138083,0.0638 0.8879416,0.14746 1.3818305,0.25471 l 0.00953,1.16169 c -0.4981222,-0.10724 -0.9754305,-0.19156 -1.3913555,-0.25506 z m 0,-1.34302 0.00176,-1.15888 c 0.4134555,0.0639 0.8861777,0.14711 1.3800666,0.25435 v 1.15711 c -0.4953,-0.10653 -0.9687277,-0.18908 -1.3818305,-0.25258 m 0,-2.48003 v -1.19521 c 0.4191,0.0646 0.8981722,0.14993 1.3973527,0.25858 v 1.19239 c -0.5009444,-0.10795 -0.9800166,-0.19226 -1.3973527,-0.25576 m 2.82645549,0.70873 -0.0151694,1.15711 c -0.47307499,-0.14676 -0.96096669,-0.26952 -1.42839719,-0.37042 l 0.013758,-1.15958 c 0.4695472,0.1016 0.9574389,0.22472 1.42980833,0.37289 m 0,2.48003 v 1.18356 c -0.47836665,-0.14851 -0.97119723,-0.27305 -1.44462503,-0.375 v -1.18498 c 0.4741333,0.10266 0.96696393,0.22684 1.44462503,0.37642 m -0.015875,3.73097 c -0.4681361,-0.14675 -0.95003053,-0.26952 -1.41393333,-0.37077 l -0.00494,-1.22907 c 0.466725,0.10089 0.9496778,0.2233 1.41887223,0.37006 z m -3.47203883,-0.33619 c 0,0 3.80929438,0.59725 4.8379943,1.42028 v -1.86831 c -0.41839438,-0.20355 -0.88370825,-0.37853 -1.36560269,-0.52776 l 0.0155222,-1.15252 c 0.47660277,0.14993 0.93909443,0.32561 1.35008049,0.52987 v -1.35784 c -0.41874717,-0.20355 -0.88476661,-0.37747 -1.36595549,-0.52635 v -1.15287 c 0.48330555,0.15099 0.95038332,0.32843 1.36595549,0.53516 v -1.33597 c -0.41451384,-0.20108 -0.87453605,-0.37394 -1.35008049,-0.52176 l -0.0141111,-1.19098 c 0.31644166,0.0995 0.62547499,0.20991 0.91757498,0.33267 0.16263055,0.0755 0.31326666,0.15417 0.44661661,0.23707 v -0.15875 l -7.055e-4,-0.0441 7.055e-4,0.0441 v -2.35232 H -4.517016 v 0.65405 c 2.227086,0.21837 4.51484985,1.05163 3.2670749,0.68968 -0.027869,-0.008 -0.055739,-0.0159 -0.085372,-0.0236 -1.1624028,-0.32102 -2.9238222,-0.49565 -3.1817027,-0.51999 v 1.61149 c 0.1407583,0.012 0.6798027,0.0631 1.4068777,0.17392 l 0.00176,1.16381 c -0.7239,-0.11077 -1.2611805,-0.16157 -1.4086416,-0.17462 v 1.31692 c 0.1414638,0.012 0.6882694,0.0639 1.4227527,0.17638 v 1.18569 c -0.7306028,-0.11289 -1.2749389,-0.16439 -1.4227527,-0.17709 v 1.31833 c 0.1598083,0.0138 0.6946194,0.0653 1.4068777,0.17497 v 1.22696 c -0.739775,-0.11465 -1.2841111,-0.1651 -1.4068777,-0.17568 v 1.899 h 5.21476095 c -0.53692777,-0.32702 -1.74483885,-0.82444 -4.46934155,-1.4298"
         style="fill:#000000;fill-opacity:1;fill-rule:nonzero;stroke:none;stroke-width:0.35277778"
         id="path24571"
         inkscape:connector-curvature="0" />
    </g>
  </g>
</svg>
